<svg width="24" height="24" viewBox="0 0 24 24" fill="none" xmlns="http://www.w3.org/2000/svg">
<path d="M13.0248 7.03304V5.02476C13.0248 4.45879 12.5659 4 12 4C11.434 4 10.9753 4.45879 10.9753 5.02476V7.03299C10.1359 7.04272 9.45605 7.72809 9.45605 8.56967V9.08205C9.45605 9.92364 10.136 10.6091 10.9753 10.6187V19.5672C10.9753 20.1331 11.434 20.5919 12 20.5919C12.5659 20.5919 13.0248 20.1331 13.0248 19.5672V10.6188C13.8641 10.6091 14.5439 9.92369 14.5439 9.0821V8.56972C14.544 7.72814 13.8641 7.04272 13.0248 7.03304Z" fill="#152144"/>
<path d="M19.4808 11.9177V5.02476C19.4808 4.45879 19.0221 4 18.4561 4C17.8902 4 17.4313 4.45879 17.4313 5.02476V11.9177C16.592 11.9274 15.9121 12.6128 15.9121 13.4543V13.9667C15.9121 14.8083 16.592 15.4937 17.4313 15.5034V19.5672C17.4313 20.1331 17.8902 20.5919 18.4561 20.5919C19.0221 20.5919 19.4808 20.1331 19.4808 19.5672V15.5035C20.3202 15.4938 21 14.8084 21 13.9668V13.4545C21.0001 12.6128 20.3202 11.9274 19.4808 11.9177Z" fill="#152144"/>
<path d="M6.56874 9.90237V5.02476C6.56874 4.45879 6.1099 4 5.54398 4C4.97795 4 4.51921 4.45879 4.51921 5.02476V9.90232C3.67988 9.91206 3 10.5974 3 11.439V11.9514C3 12.793 3.67993 13.4784 4.51921 13.4881V19.5672C4.51921 20.1332 4.97795 20.592 5.54398 20.592C6.1099 20.592 6.56874 20.1332 6.56874 19.5672V13.4882C7.40807 13.4785 8.08795 12.7931 8.08795 11.9514V11.4391C8.08795 10.5975 7.40807 9.91206 6.56874 9.90237Z" fill="#152144"/>
</svg>
