<svg width="24" height="24" viewBox="0 0 24 24" fill="none" xmlns="http://www.w3.org/2000/svg">
<path fill-rule="evenodd" clip-rule="evenodd" d="M15.1498 13.6918H14.3819L14.1098 13.4294C15.0623 12.3213 15.6358 10.8828 15.6358 9.3179C15.6358 5.82847 12.8073 3 9.3179 3C5.82847 3 3 5.82847 3 9.3179C3 12.8073 5.82847 15.6358 9.3179 15.6358C10.8828 15.6358 12.3213 15.0623 13.4294 14.1098L13.6918 14.3819V15.1498L18.5517 20L20 18.5517L15.1498 13.6918ZM9.3179 13.6918C6.89766 13.6918 4.94397 11.7381 4.94397 9.3179C4.94397 6.89766 6.89766 4.94397 9.3179 4.94397C11.7381 4.94397 13.6918 6.89766 13.6918 9.3179C13.6918 11.7381 11.7381 13.6918 9.3179 13.6918Z" fill="#152144"/>
</svg>
